<svg width="52" height="62" viewBox="0 0 52 62" fill="none" xmlns="http://www.w3.org/2000/svg">
<path d="M34.5843 29.4469C32.0203 31.5838 15.2301 45.5826 11.3427 48.8259L4.76944 41.9813L23.4582 17.8616L34.5843 29.4469ZM47.5236 4.40597C42.5151 -0.809308 34.3917 -0.809308 29.3832 4.40597C26.0807 7.84729 25.8005 11.6185 25.6396 12.956L39.3126 27.1933C40.4922 27.0563 44.192 26.7644 47.5236 23.2952C52.5346 18.0799 52.5346 9.62124 47.5236 4.40597ZM23.5557 49.9349C17.9696 49.9349 15.4178 53.5565 11.8179 55.9116C9.26857 57.5764 6.85572 56.7313 5.69559 55.2365C5.27395 54.701 4.06995 52.7722 6.11967 50.5618L5.81502 50.2445L3.07067 47.4758C-0.273231 51.0694 0.31902 55.3634 2.39068 58.0256C4.767 61.0811 9.54642 62.6241 14.0773 59.6625C17.9403 57.1373 19.6513 54.3635 23.5557 54.3635C26.0807 54.3635 28.3815 55.5411 32.0496 61.4009L35.6104 58.9849C32.2153 53.5539 28.8641 49.9349 23.5557 49.9349Z" fill="#EAEAEA"/>
</svg>
