<svg width="59" height="62" viewBox="0 0 59 62" fill="none" xmlns="http://www.w3.org/2000/svg">
<g clip-path="url(#clip0)">
<g clip-path="url(#clip1)">
<path d="M28.3602 4.99249C40.9452 4.99249 51.1839 15.086 51.1839 27.4925C51.1839 39.899 40.9452 49.9925 28.3602 49.9925C15.7752 49.9925 5.53643 39.899 5.53643 27.4925C5.53643 15.086 15.7752 4.99249 28.3602 4.99249ZM28.3602 0.492493C13.2349 0.492493 0.97168 12.5818 0.97168 27.4925C0.97168 42.4033 13.2349 54.4925 28.3602 54.4925C43.4855 54.4925 55.7487 42.4033 55.7487 27.4925C55.7487 12.5818 43.4855 0.492493 28.3602 0.492493ZM32.925 27.4925L22.6543 37.6175L26.1395 40.9925L39.7721 27.4925L26.1395 13.9925L22.6543 17.3675L32.925 27.4925Z" fill="#EAEAEA"/>
</g>
</g>
<defs>
<clipPath id="clip0">
<rect width="58.494" height="60.9083" fill="white" transform="translate(0.353027 0.492493)"/>
</clipPath>
<clipPath id="clip1">
<rect width="56" height="54" fill="white" transform="translate(0.353027 0.492493)"/>
</clipPath>
</defs>
</svg>
